<svg id="_图层_1" data-name="图层_1" xmlns="http://www.w3.org/2000/svg" version="1.1"
  viewBox="0 0 200 200">
  <!-- Generator: Adobe Illustrator 29.8.1, SVG Export Plug-In . SVG Version: 2.1.1 Build 2)  -->
  <defs>
    <style>
      .st0 {
      display: none;
      }

      .st1 {
      font-family: Arial-BoldMT, Arial;
      font-size: 114px;
      font-weight: 700;
      letter-spacing: .03em;
      }

      .st2 {
      fill: #dec18f;
      }
    </style>
  </defs>
  <path class="st2" d="M12.5,12.5h175v175H12.5V12.5Z" />
  <path class="st0"
    d="M130.06,149.22c3.04,6.18,9.36,10.07,16.25,10,6.81,0,11.17-3.41,11.17-8.12,0-5.62-4.47-7.64-11.98-10.92l-4.11-1.76c-11.87-5.06-19.75-11.39-19.75-24.78,0-12.33,9.38-21.72,24.08-21.72,9.73-.7,18.94,4.48,23.39,13.17l-12.86,8.22c-1.71-4.31-5.92-7.12-10.56-7.05-3.93-.39-7.44,2.48-7.83,6.41-.02.21-.03.43-.04.64,0,4.93,3.06,6.93,10.11,10l4.11,1.76c13.98,5.99,21.88,12.1,21.88,25.83,0,14.81-11.63,22.92-27.25,22.92-12.43.79-24.17-5.79-29.97-16.82l13.35-7.77ZM71.96,150.64c2.58,4.58,4.93,8.46,10.58,8.46s8.81-2.11,8.81-10.33v-55.92h16.44v56.14c0,17.02-10,24.78-24.56,24.78-10.53.58-20.33-5.38-24.67-15l13.39-8.12Z" />
  <g id="ktjs">
    <text class="st1" transform="translate(68.15 174.4)">
      <tspan x="0" y="0">kt</tspan>
    </text>
  </g>
</svg>